<?xml version="1.0" encoding="utf-8"?>
<!-- Generator: Adobe Illustrator 16.0.0, SVG Export Plug-In . SVG Version: 6.00 Build 0)  -->
<!DOCTYPE svg PUBLIC "-//W3C//DTD SVG 1.1//EN" "http://www.w3.org/Graphics/SVG/1.1/DTD/svg11.dtd">
<svg version="1.1"
	 id="svg2" sodipodi:docname="arrow.svg" inkscape:version="0.48.2 r9819" xmlns:dc="http://purl.org/dc/elements/1.1/" xmlns:cc="http://creativecommons.org/ns#" xmlns:rdf="http://www.w3.org/1999/02/22-rdf-syntax-ns#" xmlns:svg="http://www.w3.org/2000/svg" xmlns:sodipodi="http://sodipodi.sourceforge.net/DTD/sodipodi-0.dtd" xmlns:inkscape="http://www.inkscape.org/namespaces/inkscape"
	 xmlns="http://www.w3.org/2000/svg" xmlns:xlink="http://www.w3.org/1999/xlink" x="0px" y="0px" width="546.08px"
	 height="622.567px" viewBox="0 0 546.08 622.567" enable-background="new 0 0 546.08 622.567" xml:space="preserve">
<sodipodi:namedview  id="base" fit-margin-bottom="0" fit-margin-right="0" inkscape:window-y="-8" inkscape:window-x="-8" inkscape:window-height="716" inkscape:window-width="1366" inkscape:current-layer="layer1" inkscape:document-units="px" inkscape:pageshadow="2" inkscape:pageopacity="0.0" inkscape:window-maximized="1" inkscape:cy="440.74377" fit-margin-left="0" inkscape:cx="400.58996" fit-margin-top="0" inkscape:zoom="1.1993206" borderopacity="1.0" bordercolor="#666666" pagecolor="#ffffff" showgrid="false">
	</sodipodi:namedview>
<g id="layer1" transform="translate(-111.14609,-49.466446)" inkscape:label="Layer 1" inkscape:groupmode="layer">
	<text transform="matrix(1 0 0 1 206.9806 63.1417)" font-family="'Verdana'" font-size="18">Your screen is the correct orientation.</text>
	<text transform="matrix(1 0 0 1 263.6085 85.6417)" font-family="'Verdana'" font-size="18">Press </text>
	<text transform="matrix(1 0 0 1 317.9513 85.6417)" font-family="'Verdana-Bold'" font-size="18">ENTER</text>
	<text transform="matrix(1 0 0 1 384.1329 85.6417)" font-family="'Verdana'" font-size="18"> to continue</text>
	<text transform="matrix(0 1 -1 0 643.8658 185.3683)" font-family="'Verdana'" font-size="18">Press </text>
	<text transform="matrix(0 1 -1 0 643.8658 239.7111)" font-family="'Verdana-Bold'" font-size="18">CTRL - ALT - RIGHT ARROW</text>
	<text transform="matrix(0 1 -1 0 643.8658 519.9064)" font-family="'Verdana'" font-size="18"> to</text>
	<text transform="matrix(0 1 -1 0 621.3658 225.0509)" font-family="'Verdana'" font-size="18">correct your screen orientation</text>
	<text transform="matrix(0 1 -1 0 598.8658 237.048)" font-family="'Verdana'" font-size="18">Arrow should be pointing up</text>
	<text transform="matrix(0 -1 1 0 124.5055 541.7697)" font-family="'Verdana'" font-size="18">Press </text>
	<text transform="matrix(0 -1 1 0 124.5055 487.4259)" font-family="'Verdana-Bold'" font-size="18">CTRL - ALT - LEFT ARROW</text>
	<text transform="matrix(0 -1 1 0 124.5055 225.3361)" font-family="'Verdana'" font-size="18"> to</text>
	<text transform="matrix(0 -1 1 0 147.0055 511.1388)" font-family="'Verdana'" font-size="18">correct your screen orientation</text>
	<text transform="matrix(0 -1 1 0 169.5055 499.1427)" font-family="'Verdana'" font-size="18">Arrow should be pointing up</text>
	<text transform="matrix(-1 0 0 -1 554.2047 658.674)" font-family="'Verdana'" font-size="18">Press </text>
	<text transform="matrix(-1 0 0 -1 499.8619 658.674)" font-family="'Verdana-Bold'" font-size="18">CTRL - ALT - DOWN ARROW</text>
	<text transform="matrix(-1 0 0 -1 219.7193 658.674)" font-family="'Verdana'" font-size="18"> to</text>
	<text transform="matrix(-1 0 0 -1 514.5485 636.174)" font-family="'Verdana'" font-size="18">correct your screen orientation</text>
	<text transform="matrix(-1 0 0 -1 502.5514 613.674)" font-family="'Verdana'" font-size="18">Arrow should be pointing up</text>
</g>
<line fill="none" stroke="#000000" stroke-width="5.6499" stroke-linecap="round" stroke-linejoin="round" x1="272.987" y1="104.784" x2="272.987" y2="492.303"/>
<line fill="none" stroke="#000000" stroke-width="5.6499" stroke-linecap="round" stroke-linejoin="round" x1="273.147" y1="104.785" x2="182.948" y2="340.784"/>
<line fill="none" stroke="#000000" stroke-width="5.6499" stroke-linecap="round" stroke-linejoin="round" x1="272.825" y1="104.784" x2="363.025" y2="340.784"/>
</svg>
